<?xml version="1.0" encoding="UTF-8" standalone="no"?>
<svg
   xmlns:dc="http://purl.org/dc/elements/1.1/"
   xmlns:cc="http://creativecommons.org/ns#"
   xmlns:rdf="http://www.w3.org/1999/02/22-rdf-syntax-ns#"
   xmlns:svg="http://www.w3.org/2000/svg"
   xmlns="http://www.w3.org/2000/svg"
   xmlns:sodipodi="http://sodipodi.sourceforge.net/DTD/sodipodi-0.dtd"
   xmlns:inkscape="http://www.inkscape.org/namespaces/inkscape"
   inkscape:export-ydpi="576"
   inkscape:export-xdpi="576"
   inkscape:export-filename="D:\Project Real\November\export\line,extended\png\5 - Bread with cheese.png"
   width="64pt"
   height="64pt"
   viewBox="0 0 22.577778 22.577778"
   version="1.1"
   id="svg831"
   inkscape:version="1.0 (4035a4fb49, 2020-05-01)"
   sodipodi:docname="6 -Fried chicken.svg">
  <defs
     id="defs825">
    <pattern
       id="EMFhbasepattern"
       patternUnits="userSpaceOnUse"
       width="6"
       height="6"
       x="0"
       y="0" />
    <pattern
       id="EMFhbasepattern-9"
       patternUnits="userSpaceOnUse"
       width="6"
       height="6"
       x="0"
       y="0" />
    <pattern
       id="EMFhbasepattern-0"
       patternUnits="userSpaceOnUse"
       width="6"
       height="6"
       x="0"
       y="0" />
    <pattern
       id="EMFhbasepattern-7"
       patternUnits="userSpaceOnUse"
       width="6"
       height="6"
       x="0"
       y="0" />
    <pattern
       id="EMFhbasepattern-2"
       patternUnits="userSpaceOnUse"
       width="6"
       height="6"
       x="0"
       y="0" />
    <pattern
       id="EMFhbasepattern-98"
       patternUnits="userSpaceOnUse"
       width="6"
       height="6"
       x="0"
       y="0" />
    <pattern
       id="EMFhbasepattern-6"
       patternUnits="userSpaceOnUse"
       width="6"
       height="6"
       x="0"
       y="0" />
    <pattern
       id="EMFhbasepattern-01"
       patternUnits="userSpaceOnUse"
       width="6"
       height="6"
       x="0"
       y="0" />
    <pattern
       id="EMFhbasepattern-07"
       patternUnits="userSpaceOnUse"
       width="6"
       height="6"
       x="0"
       y="0" />
    <pattern
       id="EMFhbasepattern-8"
       patternUnits="userSpaceOnUse"
       width="6"
       height="6"
       x="0"
       y="0" />
    <pattern
       id="EMFhbasepattern-4"
       patternUnits="userSpaceOnUse"
       width="6"
       height="6"
       x="0"
       y="0" />
    <pattern
       id="EMFhbasepattern-40"
       patternUnits="userSpaceOnUse"
       width="6"
       height="6"
       x="0"
       y="0" />
    <pattern
       id="EMFhbasepattern-08"
       patternUnits="userSpaceOnUse"
       width="6"
       height="6"
       x="0"
       y="0" />
    <pattern
       id="EMFhbasepattern-04"
       patternUnits="userSpaceOnUse"
       width="6"
       height="6"
       x="0"
       y="0" />
    <pattern
       id="EMFhbasepattern-014"
       patternUnits="userSpaceOnUse"
       width="6"
       height="6"
       x="0"
       y="0" />
    <pattern
       id="EMFhbasepattern-27"
       patternUnits="userSpaceOnUse"
       width="6"
       height="6"
       x="0"
       y="0" />
    <pattern
       id="EMFhbasepattern-09"
       patternUnits="userSpaceOnUse"
       width="6"
       height="6"
       x="0"
       y="0" />
    <pattern
       id="EMFhbasepattern-5"
       patternUnits="userSpaceOnUse"
       width="6"
       height="6"
       x="0"
       y="0" />
    <pattern
       id="EMFhbasepattern-018"
       patternUnits="userSpaceOnUse"
       width="6"
       height="6"
       x="0"
       y="0" />
  </defs>
  <sodipodi:namedview
     id="base"
     pagecolor="#ffffff"
     bordercolor="#666666"
     borderopacity="1.0"
     inkscape:pageopacity="0.0"
     inkscape:pageshadow="2"
     inkscape:zoom="6.2578125"
     inkscape:cx="42.666667"
     inkscape:cy="42.666667"
     inkscape:document-units="pt"
     inkscape:current-layer="layer1"
     showgrid="false"
     units="pt"
     inkscape:window-width="1366"
     inkscape:window-height="706"
     inkscape:window-x="-8"
     inkscape:window-y="-8"
     inkscape:window-maximized="1"
     inkscape:pagecheckerboard="true"
     inkscape:showpageshadow="false"
     inkscape:object-paths="true"
     inkscape:snap-intersection-paths="true"
     inkscape:snap-smooth-nodes="true"
     inkscape:snap-midpoints="true"
     showguides="true"
     inkscape:snap-bbox="true"
     inkscape:bbox-nodes="true"
     inkscape:snap-nodes="false"
     inkscape:snap-global="true"
     inkscape:document-rotation="0">
    <inkscape:grid
       type="xygrid"
       id="grid1378" />
    <sodipodi:guide
       position="0.97013831,21.607643"
       orientation="78.000048,0"
       id="guide1380"
       inkscape:locked="false" />
    <sodipodi:guide
       position="0.97013831,0.97013129"
       orientation="0,78.000005"
       id="guide1382"
       inkscape:locked="false" />
    <sodipodi:guide
       position="21.607639,0.97013129"
       orientation="-78.000048,0"
       id="guide1384"
       inkscape:locked="false" />
    <sodipodi:guide
       position="21.607639,21.607643"
       orientation="0,-78.000005"
       id="guide1386"
       inkscape:locked="false" />
  </sodipodi:namedview>
  <metadata
     id="metadata828">
    <rdf:RDF>
      <cc:Work
         rdf:about="">
        <dc:format>image/svg+xml</dc:format>
        <dc:type
           rdf:resource="http://purl.org/dc/dcmitype/StillImage" />
        <dc:title></dc:title>
      </cc:Work>
    </rdf:RDF>
  </metadata>
  <g
     inkscape:label="Icon"
     inkscape:groupmode="layer"
     id="layer1"
     transform="translate(0,-274.42223)">
    <path
       id="path676"
       style="color:#000000;font-style:normal;font-variant:normal;font-weight:normal;font-stretch:normal;font-size:medium;line-height:normal;font-family:sans-serif;font-variant-ligatures:normal;font-variant-position:normal;font-variant-caps:normal;font-variant-numeric:normal;font-variant-alternates:normal;font-variant-east-asian:normal;font-feature-settings:normal;font-variation-settings:normal;text-indent:0;text-align:start;text-decoration:none;text-decoration-line:none;text-decoration-style:solid;text-decoration-color:#000000;letter-spacing:normal;word-spacing:normal;text-transform:none;writing-mode:lr-tb;direction:ltr;text-orientation:mixed;dominant-baseline:auto;baseline-shift:baseline;text-anchor:start;white-space:normal;shape-padding:0;shape-margin:0;inline-size:0;clip-rule:nonzero;display:inline;overflow:visible;visibility:visible;opacity:1;isolation:auto;mix-blend-mode:normal;color-interpolation:sRGB;color-interpolation-filters:linearRGB;solid-color:#000000;solid-opacity:1;vector-effect:none;fill:#000000;fill-opacity:1;fill-rule:nonzero;stroke:none;stroke-width:0.529168;stroke-linecap:round;stroke-linejoin:round;stroke-miterlimit:1.5;stroke-dasharray:none;stroke-dashoffset:0;stroke-opacity:1;color-rendering:auto;image-rendering:auto;shape-rendering:auto;text-rendering:auto;enable-background:accumulate;stop-color:#000000;stop-opacity:1"
       d="m 7.0126514,275.3924 c -0.625406,0 -1.1398995,0.51447 -1.1398961,1.13989 -3.4e-6,0.49615 0.3617855,0.84459 0.8078043,0.99953 v 1.24192 c -0.09351,0.0514 -0.1804419,0.11595 -0.2378563,0.21447 -0.073795,0.1267 -0.079615,0.2785 -0.056539,0.38343 0.04116,0.18727 0.1236663,0.2779 0.1670191,0.34379 -0.6523611,0.43482 -1.1560073,1.19461 -1.5012323,2.07312 -0.3232874,0.82271 -0.5337425,1.65806 -0.5913931,2.27265 -0.4656305,0.0835 -0.8253498,0.49156 -0.825353,0.97937 3.2e-6,0.4452 0.300854,0.82293 0.7070738,0.95013 l 1.2159338,7.77197 v -0.0126 c 0.050011,0.42519 0.3496038,0.7677 0.7395659,0.89488 v 0.38733 c 0,0.54733 0.4495857,0.99758 0.996924,0.99758 h 7.9877225 c 0.547335,0 0.997569,-0.45025 0.997569,-0.99758 v -0.38733 c 0.389962,-0.12718 0.6889,-0.4697 0.738921,-0.89488 v 0.0126 l 1.216583,-7.77197 c 0.405917,-0.12739 0.70707,-0.50515 0.707074,-0.95013 -4e-6,-0.50981 -0.394242,-0.92992 -0.890341,-0.98587 -0.0727,-0.83351 -0.421026,-1.67504 -0.95208,-2.34998 -0.512731,-0.65165 -1.210447,-1.15229 -2.01139,-1.28416 -0.01245,-0.0556 -0.02545,-0.11105 -0.03705,-0.16703 0.07986,-0.0128 0.147494,-0.0101 0.267752,-0.0786 0.09262,-0.0524 0.202509,-0.15662 0.245656,-0.2996 0.04293,-0.14226 0.01601,-0.28615 -0.03379,-0.41072 l 0.846802,-0.84485 c 0.424763,0.20519 0.926475,0.21341 1.277022,-0.13713 0.442235,-0.44224 0.442235,-1.17209 0,-1.61431 -0.222508,-0.22251 -0.516241,-0.33023 -0.810406,-0.32884 0.0014,-0.29415 -0.106343,-0.5879 -0.328842,-0.81041 -0.221115,-0.22111 -0.513526,-0.33144 -0.805858,-0.33144 -0.292329,0 -0.584741,0.11042 -0.805853,0.33144 -0.350549,0.35054 -0.342311,0.85227 -0.137127,1.27703 l -0.879941,0.87993 c -0.102093,-0.03 -0.209145,-0.0466 -0.319096,-0.0176 -0.14177,0.0375 -0.251455,0.1402 -0.309342,0.23071 -0.09819,0.15352 -0.104746,0.26456 -0.120227,0.34379 -0.624856,-0.12818 -1.320614,-0.0611 -2.02634,0.18651 -0.685026,0.24038 -1.3458414,0.57979 -1.8703634,0.91764 0.1145047,-0.18374 0.057988,-0.38471 0.030547,-0.5511 -0.070086,-0.13068 -0.1889372,-0.21358 -0.3119447,-0.26646 v -1.19773 c 0.4453638,-0.15531 0.805209,-0.50384 0.8052053,-0.99953 7.5e-6,-0.62541 -0.5138412,-1.13989 -1.1392469,-1.13989 -0.314666,0 -0.5988365,0.13025 -0.8058544,0.33924 -0.2070212,-0.209 -0.4931381,-0.33924 -0.8078076,-0.33924 z m 8.6960966,0.66483 c 0.120655,0 0.241381,0.047 0.33534,0.14103 0.187922,0.18792 0.187925,0.48209 0,0.67002 -0.314399,0.3144 0.157417,0.78622 0.471816,0.47182 0.187932,-0.18793 0.482108,-0.18793 0.67003,0 0.187915,0.18791 0.187925,0.48275 0,0.67068 -0.187922,0.18792 -0.482104,0.18792 -0.67003,0 -0.130068,-0.13062 -0.341747,-0.13062 -0.471816,0 l -0.892939,0.89294 c -0.213962,-0.24488 -0.442701,-0.4549 -0.67523,-0.66419 l 0.897487,-0.89943 c 0.130617,-0.13008 0.130617,-0.34174 0,-0.47182 -0.187904,-0.1879 -0.187924,-0.4821 0,-0.67002 0.09397,-0.0939 0.214682,-0.14103 0.335342,-0.14103 z m -8.2223307,0.47506 c 0,0.44376 0.6654812,0.44376 0.6654812,0 6.6e-6,-0.26578 0.2086549,-0.47441 0.4744148,-0.47441 0.2657599,0 0.4737693,0.20863 0.4737661,0.47441 3.2e-6,0.26574 -0.2079995,0.47376 -0.4737661,0.47376 -0.1828641,6.6e-4 -0.3314428,0.14858 -0.3320917,0.33144 v 1.26338 c -0.324512,-0.023 -0.6348523,-0.0101 -0.9475287,0.006 V 277.337 c -6.655e-4,-0.18382 -0.1502157,-0.33214 -0.3340415,-0.33144 -0.2657433,0 -0.4744183,-0.20803 -0.474415,-0.47378 -3.3e-6,-0.26578 0.2086551,-0.4744 0.474415,-0.4744 0.2657599,0 0.4737593,0.20862 0.4737659,0.4744 z m 6.3006257,2.04584 c 0.457824,0.30072 0.721482,0.57122 1.019992,1.05735 -0.256711,0.041 -0.324008,0.16305 -0.433148,0.31585 -0.03087,0.15813 0.01937,0.31035 0.05784,0.44907 -0.871448,0.0848 -1.632096,0.60749 -2.180362,1.30432 -0.528564,0.67177 -0.876479,1.50861 -0.967017,2.33828 -0.07707,-0.62261 -0.29382,-1.4624 -0.62453,-2.28629 -0.260767,-0.64963 -0.611597,-1.22614 -1.0437146,-1.65655 0.4762656,-0.30462 1.0959806,-0.6237 1.7169946,-0.8416 0.728895,-0.25576 1.4497,-0.34954 1.852167,-0.21122 0.134145,0.0462 0.367099,-0.0197 0.454271,-0.12287 0.08718,-0.10312 0.100017,-0.1812 0.117623,-0.24564 0.01611,-0.059 0.07103,-0.10111 0.02992,-0.10074 m -5.1978074,0.74932 c -0.019133,0.0309 -0.016503,0.0302 -0.041593,0.0689 -0.035301,0.0544 -0.084979,0.11004 -0.1059316,0.24305 -0.010451,0.0665 -0.00582,0.16443 0.041593,0.25282 0.047439,0.0884 0.1263782,0.1468 0.1917185,0.17677 0.450045,0.20636 1.0016561,1.02268 1.3680035,1.93535 0.315098,0.78499 0.448588,1.52984 0.49911,2.03868 H 5.1897288 c 0.049435,-0.50198 0.1786683,-1.23398 0.4841608,-2.01139 0.355896,-0.90567 0.8916581,-1.72337 1.3309622,-1.93796 0.1274564,-0.0623 0.2445976,-0.27551 0.2333112,-0.41007 -0.011319,-0.13456 -0.055272,-0.19739 -0.088386,-0.2554 -0.031211,-0.0547 -0.033983,-0.0573 -0.053941,-0.0936 0.5380216,-0.10992 0.9172594,-0.10602 1.493433,-0.008 m 6.086814,1.72154 c 0.715687,0 1.395199,0.42237 1.903508,1.06841 0.435055,0.55293 0.726508,1.25994 0.801958,1.92561 h -5.410933 c 0.07597,-0.66567 0.368856,-1.37268 0.803907,-1.92561 0.508311,-0.64604 1.185875,-1.06841 1.90156,-1.06841 z M 4.6347273,284.70875 H 17.9424 c 0.187706,0 0.334038,0.14373 0.334038,0.33144 0,0.18771 -0.146339,0.33405 -0.334038,0.33405 H 4.6347274 c -0.1877055,1e-5 -0.3340382,-0.14634 -0.3340415,-0.33405 3.3e-6,-0.18771 0.1463427,-0.33144 0.3340414,-0.33144 z m 0.390581,1.33097 H 17.554418 l -0.364584,2.32853 h -4.58428 l -0.84745,-1.27247 c -0.216504,-0.32476 -0.721927,-0.32476 -0.938432,0 l -0.84745,1.27247 H 5.3892434 Z m 6.2635777,1.55258 1.527878,2.29149 c 0.04227,0.0634 0.04227,0.14326 0,0.20666 l -1.527877,2.29186 -1.5278756,-2.29149 c -0.042268,-0.0634 -0.042268,-0.14325 0,-0.20666 z m -5.7527712,1.44143 h 3.9928866 l -0.3210407,0.48157 c -0.1902381,0.28536 -0.1902381,0.65828 0,0.94363 l 0.1585711,0.23786 H 5.7531784 C 5.6576344,290.14563 5.6015552,289.589 5.5361148,289.03373 Z m 7.5126592,0 h 3.992235 c -0.05818,0.55647 -0.129749,1.11051 -0.216411,1.66306 h -3.614006 l 0.158575,-0.23786 c 0.190234,-0.28535 0.190234,-0.65827 0,-0.94363 z m -7.1916143,2.32854 h 3.9525926 l 1.0099197,1.51553 c 0.216505,0.32476 0.721928,0.32476 0.938432,0 l 1.009268,-1.51553 h 3.953244 l -0.360035,2.29669 c -9.98e-4,0.004 -0.0014,0.008 -0.002,0.0129 -0.02462,0.2094 -0.197281,0.36328 -0.408126,0.36328 H 6.6265758 c -0.2108444,0 -0.3828481,-0.15388 -0.4087785,-0.36978 z m 1.1060995,3.33845 h 8.6506058 v 0.33144 c 0,0.18768 -0.143758,0.33404 -0.33144,0.33404 H 7.2947022 c -0.1876824,0 -0.3314429,-0.14636 -0.3314429,-0.33404 z"
       sodipodi:nodetypes="ssccsccscsccccssssccccscscccsccsscsscccssccccccsscssscsssccccccssssssccccccscscccccccscsccccccsccsscscscccsssscccsscccccccccccccccccccccccccccscccccsccccssccccsssscsss" />
  </g>
</svg>
