<?xml version="1.0" encoding="UTF-8" standalone="no"?>
<svg
   sodipodi:docname="4 - Fries French.svg"
   inkscape:version="1.1.1 (1:1.1+202109281949+c3084ef5ed)"
   id="svg831"
   version="1.1"
   viewBox="0 0 22.577778 22.577778"
   height="64pt"
   width="64pt"
   inkscape:export-filename="/media/taufikramadhan/Data/Tr Design Studio/Project Design/TR Creative Design/Icon Design/Project Hiring/Icon Icons/010 - Food/Send/1 - Line/4 - Fries French.png"
   inkscape:export-xdpi="576"
   inkscape:export-ydpi="576"
   xmlns:inkscape="http://www.inkscape.org/namespaces/inkscape"
   xmlns:sodipodi="http://sodipodi.sourceforge.net/DTD/sodipodi-0.dtd"
   xmlns="http://www.w3.org/2000/svg"
   xmlns:svg="http://www.w3.org/2000/svg"
   xmlns:rdf="http://www.w3.org/1999/02/22-rdf-syntax-ns#"
   xmlns:cc="http://creativecommons.org/ns#"
   xmlns:dc="http://purl.org/dc/elements/1.1/">
  <defs
     id="defs825">
    <pattern
       y="0"
       x="0"
       height="6"
       width="6"
       patternUnits="userSpaceOnUse"
       id="EMFhbasepattern" />
    <pattern
       y="0"
       x="0"
       height="6"
       width="6"
       patternUnits="userSpaceOnUse"
       id="EMFhbasepattern-9" />
    <pattern
       y="0"
       x="0"
       height="6"
       width="6"
       patternUnits="userSpaceOnUse"
       id="EMFhbasepattern-0" />
    <pattern
       y="0"
       x="0"
       height="6"
       width="6"
       patternUnits="userSpaceOnUse"
       id="EMFhbasepattern-7" />
    <pattern
       y="0"
       x="0"
       height="6"
       width="6"
       patternUnits="userSpaceOnUse"
       id="EMFhbasepattern-2" />
    <pattern
       y="0"
       x="0"
       height="6"
       width="6"
       patternUnits="userSpaceOnUse"
       id="EMFhbasepattern-98" />
    <pattern
       y="0"
       x="0"
       height="6"
       width="6"
       patternUnits="userSpaceOnUse"
       id="EMFhbasepattern-6" />
    <pattern
       y="0"
       x="0"
       height="6"
       width="6"
       patternUnits="userSpaceOnUse"
       id="EMFhbasepattern-01" />
    <pattern
       y="0"
       x="0"
       height="6"
       width="6"
       patternUnits="userSpaceOnUse"
       id="EMFhbasepattern-07" />
    <pattern
       y="0"
       x="0"
       height="6"
       width="6"
       patternUnits="userSpaceOnUse"
       id="EMFhbasepattern-8" />
    <pattern
       y="0"
       x="0"
       height="6"
       width="6"
       patternUnits="userSpaceOnUse"
       id="EMFhbasepattern-4" />
    <pattern
       y="0"
       x="0"
       height="6"
       width="6"
       patternUnits="userSpaceOnUse"
       id="EMFhbasepattern-40" />
    <pattern
       y="0"
       x="0"
       height="6"
       width="6"
       patternUnits="userSpaceOnUse"
       id="EMFhbasepattern-08" />
    <pattern
       y="0"
       x="0"
       height="6"
       width="6"
       patternUnits="userSpaceOnUse"
       id="EMFhbasepattern-04" />
    <pattern
       y="0"
       x="0"
       height="6"
       width="6"
       patternUnits="userSpaceOnUse"
       id="EMFhbasepattern-014" />
    <pattern
       y="0"
       x="0"
       height="6"
       width="6"
       patternUnits="userSpaceOnUse"
       id="EMFhbasepattern-27" />
    <pattern
       y="0"
       x="0"
       height="6"
       width="6"
       patternUnits="userSpaceOnUse"
       id="EMFhbasepattern-09" />
    <pattern
       y="0"
       x="0"
       height="6"
       width="6"
       patternUnits="userSpaceOnUse"
       id="EMFhbasepattern-5" />
    <pattern
       y="0"
       x="0"
       height="6"
       width="6"
       patternUnits="userSpaceOnUse"
       id="EMFhbasepattern-018" />
  </defs>
  <sodipodi:namedview
     inkscape:document-rotation="0"
     inkscape:snap-global="true"
     inkscape:snap-nodes="false"
     inkscape:bbox-nodes="true"
     inkscape:snap-bbox="true"
     showguides="true"
     inkscape:snap-midpoints="true"
     inkscape:snap-smooth-nodes="true"
     inkscape:snap-intersection-paths="true"
     inkscape:object-paths="true"
     inkscape:showpageshadow="false"
     inkscape:pagecheckerboard="true"
     inkscape:window-maximized="1"
     inkscape:window-y="31"
     inkscape:window-x="0"
     inkscape:window-height="705"
     inkscape:window-width="1366"
     units="pt"
     showgrid="false"
     inkscape:current-layer="layer1"
     inkscape:document-units="pt"
     inkscape:cy="42.525177"
     inkscape:cx="46.892628"
     inkscape:zoom="2.175182"
     inkscape:pageshadow="2"
     inkscape:pageopacity="0.0"
     borderopacity="1.0"
     bordercolor="#666666"
     pagecolor="#ffffff"
     id="base">
    <inkscape:grid
       id="grid1378"
       type="xygrid" />
    <sodipodi:guide
       inkscape:locked="false"
       id="guide1380"
       orientation="78.000048,0"
       position="0.97013831,21.607643" />
    <sodipodi:guide
       inkscape:locked="false"
       id="guide1382"
       orientation="0,78.000005"
       position="0.97013831,0.97013129" />
    <sodipodi:guide
       inkscape:locked="false"
       id="guide1384"
       orientation="-78.000048,0"
       position="21.607639,0.97013129" />
    <sodipodi:guide
       inkscape:locked="false"
       id="guide1386"
       orientation="0,-78.000005"
       position="21.607639,21.607643" />
  </sodipodi:namedview>
  <metadata
     id="metadata828">
    <rdf:RDF>
      <cc:Work
         rdf:about="">
        <dc:format>image/svg+xml</dc:format>
        <dc:type
           rdf:resource="http://purl.org/dc/dcmitype/StillImage" />
      </cc:Work>
    </rdf:RDF>
  </metadata>
  <g
     transform="translate(0,-274.42223)"
     id="layer1"
     inkscape:groupmode="layer"
     inkscape:label="Icon">
    <path
       id="rect40881"
       style="color:#000000;display:inline;fill:#000000;stroke-width:1.25806;stroke-linecap:round;stroke-linejoin:round;stroke-miterlimit:1.5;-inkscape-stroke:none"
       d="m 16.280843,296.02988 c 0.735969,0 1.365509,-0.54881 1.464069,-1.27814 l 1.438712,-10.65675 h 0.0013 l 0.614362,-3.66342 c 0.08749,-0.5215 -0.326117,-1.00704 -0.854906,-1.00704 h -0.401815 l 0.06761,-1.01484 c 0.01208,-0.1915 -0.140329,-0.354 -0.33221,-0.3543 h -1.161763 v -1.24043 c 6.98e-4,-0.18485 -0.149312,-0.33487 -0.334161,-0.33417 h -1.978312 c -0.184849,-6.7e-4 -0.334869,0.14932 -0.334162,0.33417 v 0.8224 l -1.990013,-0.46159 c -0.20864,-0.0482 -0.408283,0.1102 -0.408275,0.32441 v 0.97778 h -0.783395 v -2.30922 c -4.32e-4,-0.21699 -0.205181,-0.37549 -0.415426,-0.32181 l -2.545866,0.66572 c -0.1462263,0.0385 -0.2476738,0.1706 -0.2476954,0.32181 v 0.70733 H 6.5017522 l -0.2067375,-1.85478 c -0.019808,-0.17012 -0.1629661,-0.29069 -0.3231094,-0.29451 l -3.13e-5,-3e-5 c -0.036955,-9.9e-4 -0.074287,0.005 -0.1118199,0.0169 l -2.0225218,0.66573 c -0.1516148,0.0499 -0.2466432,0.20054 -0.2262389,0.35886 l 0.4017732,2.99055 H 3.6333951 c -0.5287863,0 -0.9423858,0.48553 -0.8549067,1.00704 l 0.6143647,3.66341 h 0.00133 l 1.4387146,10.65676 c 0.098558,0.72933 0.7261461,1.27812 1.4621174,1.27812 l 2.9976983,-0.005 c 0.1541236,0.022 0.3029161,-0.0658 0.3582156,-0.21129 0.2486837,-0.66136 0.884618,-1.13251 1.637,-1.13251 0.752381,0 1.390266,0.47115 1.63895,1.13251 0.05553,0.14528 0.204264,0.23274 0.358215,0.21063 z M 5.6780197,276.16872 6.4477612,283.04828 H 5.1728766 l -0.8633579,-6.42773 z m 4.9461053,0.43233 v 10.37459 c -0.195629,-0.035 -0.374362,-0.0854 -0.538298,-0.15017 v -6.01816 c -6.66e-4,-0.18293 -0.1486295,-0.33092 -0.3315608,-0.33156 H 8.7751868 l -0.033156,-2.60437 v -0.77885 z m 4.511175,0.54544 h 1.31454 v 0.90887 h -0.149526 c -0.18389,-6.6e-4 -0.33351,0.14832 -0.334162,0.33222 v 4.6607 H 15.1353 Z m -2.397639,0.77169 1.731917,0.40309 v 5.04426 c -0.09127,0.80079 -0.301854,1.73861 -0.771691,2.44705 -0.125378,0.18906 -0.266884,0.36338 -0.429728,0.51749 v -7.51992 c -6.33e-4,-0.18294 -0.148631,-0.33155 -0.331561,-0.33221 h -0.198937 z m -6.1611762,0.28996 h 1.5024246 v 0.33417 h 0.00585 l 0.024057,1.93344 H 7.7740058 c -0.1829317,6.7e-4 -0.3309117,0.14863 -0.3315607,0.33156 v 2.24097 H 7.1167357 Z m 11.3452252,0.51359 -0.286052,4.32655 h -1.003785 v -4.32655 z m -6.633813,0.42258 h 1.31454 v 7.6337 c -0.356841,0.16126 -0.786704,0.25354 -1.31454,0.25354 z m -7.6545019,0.94592 h 0.468738 l 0.3972229,2.95805 H 4.2997692 c -0.1395818,0 -0.271964,0.0323 -0.390073,0.0891 l -0.4726359,-2.81633 c -0.021503,-0.12823 0.066302,-0.23079 0.1963348,-0.23079 z m 14.8649709,0 h 0.445981 c 0.130029,0 0.217847,0.10266 0.196336,0.23079 l -0.472637,2.81633 c -0.111502,-0.0536 -0.235698,-0.0851 -0.366667,-0.0884 z m -10.3902011,1.0519 h 1.3119399 v 5.28741 c -0.2106291,-0.17703 -0.3870646,-0.38598 -0.5402489,-0.61696 -0.4698358,-0.70844 -0.6804133,-1.64626 -0.771691,-2.44705 z m 9.6009601,8.89688 h -3.423526 c 0,-0.20873 -0.128058,-0.51119 -0.393322,-0.66573 -0.23909,-0.13929 -0.555315,-0.21767 -1.042791,-0.26915 l -0.02925,-0.0162 c -0.37761,-0.45011 -0.939221,-0.71437 -1.53233,-0.71448 -0.588774,3.3e-4 -1.143293,0.26108 -1.5199778,0.70538 l -0.052009,0.0267 c -0.4808454,0.0516 -0.7932217,0.12973 -1.0304384,0.26785 -0.2653544,0.15452 -0.3933218,0.45695 -0.3933218,0.66572 H 4.8679761 l -0.8192139,-6.07079 c -0.00437,-0.1419 0.1041017,-0.25355 0.2509471,-0.25355 l 3.1823911,-4e-5 c 0.1112035,0.79491 0.3354124,1.70284 0.8419041,2.46656 0.5709101,0.86084 1.5358101,1.51607 2.9638925,1.51607 1.42808,0 2.394282,-0.65523 2.965192,-1.51607 0.50649,-0.76372 0.731353,-1.67165 0.842553,-2.46656 h 3.182333 c 0.147501,0 0.256332,0.11272 0.250946,0.2555 z M 5.2170873,284.69568 c -0.024898,-0.003 -0.049973,-0.003 -0.074764,0.001 -0.1828472,0.0249 -0.3105826,0.19371 -0.2847525,0.37642 l 0.5649514,4.17702 c 0.024898,0.1814 0.1916347,0.30863 0.3731698,0.28475 0.1816597,-0.0245 0.3092546,-0.19141 0.2854019,-0.37317 l -0.5656035,-4.17701 c -0.019638,-0.15431 -0.143553,-0.27444 -0.2984032,-0.2893 z m 6.0708097,4.34344 h 0.002 c 0.435221,6.6e-4 0.842937,0.2154 1.091549,0.57275 0.05701,0.0809 0.147093,0.13194 0.245745,0.13979 0.540133,0.0472 0.828727,0.13676 0.930971,0.19633 0.102242,0.0595 0.0611,0.0191 0.0611,0.091 v 1.99521 c 0,0.19016 -0.144019,0.33417 -0.33416,0.33417 H 9.2926953 c -0.1901392,0 -0.334161,-0.14401 -0.334161,-0.33417 v -1.99521 c 0,-0.0718 -0.041232,-0.0313 0.061111,-0.091 0.1023304,-0.0596 0.3931361,-0.14912 0.9335711,-0.19633 0.097764,-0.009 0.1873176,-0.0595 0.2437946,-0.13979 0.248508,-0.3572 0.655862,-0.57176 1.0909,-0.57275 z m -6.3295592,1.6656 h 3.3338109 v 0.83086 H 5.0708082 Z m 9.3272572,0 h 3.33381 l -0.11247,0.83086 h -3.221339 z m -9.1250708,1.49657 H 8.306451 c 0.080696,0.4696 0.4955488,0.83281 0.9862306,0.83281 h 3.9923804 c 0.490682,0 0.905534,-0.36321 0.98623,-0.83281 h 3.145275 l -0.33286,2.46201 c -0.05461,0.40418 -0.395056,0.70018 -0.802897,0.70018 h -2.824118 c -0.394658,-0.79959 -1.220672,-1.349 -2.168795,-1.349 -0.94804,0 -1.7724811,0.54952 -2.1668467,1.349 H 6.2949834 c -0.4078422,0 -0.7469791,-0.296 -0.8015983,-0.70018 z m 1.1422604,0.53376 c -0.024702,-0.003 -0.04956,-10e-4 -0.074113,0.003 -0.1828192,0.0245 -0.3108206,0.19307 -0.2854023,0.37578 l 0.1059699,0.78924 c 0.061204,0.45389 0.4534611,0.79575 0.911467,0.79575 h 0.3341611 c 0.1828204,-6.7e-4 0.330849,-0.14874 0.3315607,-0.33156 7.322e-4,-0.18384 -0.147727,-0.33345 -0.3315607,-0.33417 H 6.9607052 c -0.1298078,0 -0.2336002,-0.0898 -0.2509463,-0.21844 l -0.1053194,-0.7912 c -0.020771,-0.15464 -0.146181,-0.27411 -0.3016553,-0.28735 z"
       sodipodi:nodetypes="cccccsccccccccccccccccccccccccccscccccccsccccccccccccccccccccccccccccscccccccccccccccccccccccccsccsccscssccccccsccccscccccscccccssscsccccccccccccscccsssssssccccccccccccccccsscccscscsccccccscscscccc" />
  </g>
</svg>
